<svg width="520" height="216" viewBox="0 0 520 216" fill="none" xmlns="http://www.w3.org/2000/svg">
<rect x="0.5" y="0.5" width="519" height="215" stroke="#40C910" stroke-dasharray="6 6"/>
<g clip-path="url(#clip0_53_3649)">
<path d="M277.182 28.3096H250.574V39.3434H282.864V33.99C282.864 30.8575 280.315 28.3096 277.182 28.3096Z" fill="white"/>
<path d="M262.12 41.0413H231V30.8031C231 27.0515 234.053 24 237.806 24H247.756C248.745 24 249.698 24.2084 250.563 24.6C251.772 25.1448 252.811 26.0426 253.539 27.2157L262.12 41.0413Z" fill="#40C910"/>
<path d="M289 43.3335V76.3125C289 79.449 286.447 82 283.309 82H236.691C233.553 82 231 79.449 231 76.3125V37.6447H283.309C286.447 37.6447 289 40.1966 289 43.3335Z" fill="#40C910"/>
<path d="M289 43.3335V76.3125C289 79.449 286.447 82 283.309 82H260V37.6447H283.309C286.447 37.6447 289 40.1966 289 43.3335Z" fill="#40C910"/>
<path d="M275.257 59.8216C275.257 68.235 268.412 75.0796 260 75.0796C251.587 75.0796 244.743 68.235 244.743 59.8216C244.743 51.4096 251.587 44.5649 260 44.5649C268.412 44.5649 275.257 51.4096 275.257 59.8216Z" fill="#E7ECFC"/>
<path d="M275.257 59.8216C275.257 68.235 268.412 75.0796 260 75.0796V44.5649C268.412 44.5649 275.257 51.4096 275.257 59.8216Z" fill="white"/>
<path d="M264.917 60.0088C264.599 60.2783 264.209 60.4097 263.823 60.4097C263.34 60.4097 262.859 60.2048 262.523 59.8057L261.699 58.8295V65.2206C261.699 66.1587 260.938 66.9198 260 66.9198C259.062 66.9198 258.301 66.1587 258.301 65.2206V58.8295L257.477 59.8057C256.871 60.523 255.8 60.6146 255.082 60.0088C254.366 59.4039 254.273 58.3321 254.878 57.6148L258.242 53.6274C258.68 53.1088 259.32 52.8105 260 52.8105C260.68 52.8105 261.319 53.1088 261.758 53.6274L265.121 57.6148C265.726 58.3321 265.634 59.4039 264.917 60.0088Z" fill="#40C910"/>
<path d="M264.918 60.0088C264.599 60.2783 264.21 60.4097 263.823 60.4097C263.34 60.4097 262.859 60.2048 262.523 59.8057L261.699 58.8295V65.2206C261.699 66.1587 260.938 66.9198 260 66.9198V52.8105C260.68 52.8105 261.32 53.1088 261.758 53.6274L265.122 57.6148C265.726 58.3321 265.634 59.4039 264.918 60.0088Z" fill="#40C910"/>
</g>
<path d="M57.8935 100.4H59.6215L64.1575 113H62.3755L61.2595 109.796H56.2735L55.1575 113H53.3755L57.8935 100.4ZM60.8095 108.338L58.7755 102.452H58.7395L56.7415 108.338H60.8095ZM65.2421 111.272V105.764L66.9701 104.036H70.4621L71.7941 105.206V100.148H73.4681V113H71.8661V111.452L70.3181 113H66.9701L65.2421 111.272ZM70.0481 111.542L71.7941 109.778V106.88L70.2281 105.494H67.7441L66.9161 106.322V110.714L67.7441 111.542H70.0481ZM75.8966 102.038V101.138L76.5266 100.49H77.4806L78.1106 101.138V102.038L77.4806 102.686H76.5266L75.8966 102.038ZM76.1666 104.036H77.8406V113H76.1666V104.036ZM80.3593 111.29V105.746L82.0693 104.036H86.5873L88.3153 105.764V107.042H86.6413V106.304L85.8313 105.494H82.8433L82.0333 106.304V110.732L82.8433 111.542H85.8313L86.6413 110.732V109.994H88.3153V111.272L86.5873 113H82.0693L80.3593 111.29ZM90.2052 102.038V101.138L90.8352 100.49H91.7892L92.4192 101.138V102.038L91.7892 102.686H90.8352L90.2052 102.038ZM90.4752 104.036H92.1492V113H90.4752V104.036ZM94.6679 111.272V105.764L96.3959 104.036H101.184L102.894 105.764V111.272L101.184 113H96.3959L94.6679 111.272ZM100.41 111.542L101.22 110.75V106.286L100.41 105.494H97.1519L96.3419 106.286V110.75L97.1519 111.542H100.41ZM105.237 104.036H106.839V105.8L108.603 104.036H111.411L113.175 105.8V113H111.501V106.304L110.691 105.494H108.981L106.911 107.564V113H105.237V104.036ZM115.428 111.29V105.764L117.156 104.036H121.854L123.582 105.764V109.04H117.102V110.768L117.894 111.56H121.116L121.908 110.786V110.174H123.564V111.29L121.872 113H117.138L115.428 111.29ZM121.908 107.726V106.268L121.098 105.476H117.912L117.102 106.268V107.726H121.908ZM130.211 111.272V105.764L131.939 104.036H136.727L138.437 105.764V111.272L136.727 113H131.939L130.211 111.272ZM135.953 111.542L136.763 110.75V106.286L135.953 105.494H132.695L131.885 106.286V110.75L132.695 111.542H135.953ZM145.062 111.47V109.256L146.592 107.726H151.308V106.214L150.516 105.44H147.582L146.808 106.214V106.88H145.134V105.782L146.88 104.036H151.218L152.964 105.782V113H151.398V111.524L149.85 113H146.592L145.062 111.47ZM149.616 111.614L151.308 109.994V109.058H147.366L146.736 109.688V111.002L147.366 111.614H149.616ZM155.387 104.036H156.989V105.602L158.537 104.036H160.931V105.494H158.915L157.061 107.366V113H155.387V104.036ZM168.332 111.416L166.748 113H163.544L161.816 111.272V105.764L163.544 104.036H168.26L170.006 105.782V116.816H168.332V111.416ZM166.424 111.542L168.332 109.544V106.304L167.522 105.494H164.3L163.49 106.304V110.732L164.3 111.542H166.424ZM172.348 111.272V104.036H174.022V110.75L174.832 111.542H176.506L178.594 109.454V104.036H180.268V113H178.666V111.218L176.884 113H174.076L172.348 111.272ZM182.701 102.038V101.138L183.331 100.49H184.285L184.915 101.138V102.038L184.285 102.686H183.331L182.701 102.038ZM182.971 104.036H184.645V113H182.971V104.036ZM186.264 104.036H187.992L190.476 111.2H190.548L193.014 104.036H194.742L191.412 113H189.612L186.264 104.036ZM195.83 111.272V105.764L197.558 104.036H202.346L204.056 105.764V111.272L202.346 113H197.558L195.83 111.272ZM201.572 111.542L202.382 110.75V106.286L201.572 105.494H198.314L197.504 106.286V110.75L198.314 111.542H201.572ZM210.771 111.272V105.764L212.499 104.036H217.287L218.997 105.764V111.272L217.287 113H212.499L210.771 111.272ZM216.513 111.542L217.323 110.75V106.286L216.513 105.494H213.255L212.445 106.286V110.75L213.255 111.542H216.513ZM221.25 111.272V104.036H222.924V110.75L223.734 111.542H225.408L227.496 109.454V104.036H229.17V113H227.568V111.218L225.786 113H222.978L221.25 111.272ZM235.976 111.47V109.256L237.506 107.726H242.222V106.214L241.43 105.44H238.496L237.722 106.214V106.88H236.048V105.782L237.794 104.036H242.132L243.878 105.782V113H242.312V111.524L240.764 113H237.506L235.976 111.47ZM240.53 111.614L242.222 109.994V109.058H238.28L237.65 109.688V111.002L238.28 111.614H240.53ZM246.301 104.036H247.903V105.602L249.451 104.036H251.845V105.494H249.829L247.975 107.366V113H246.301V104.036ZM253.367 104.036H254.969V105.602L256.517 104.036H258.911V105.494H256.895L255.041 107.366V113H253.367V104.036ZM259.707 111.47V109.256L261.237 107.726H265.953V106.214L265.161 105.44H262.227L261.453 106.214V106.88H259.779V105.782L261.525 104.036H265.863L267.609 105.782V113H266.043V111.524L264.495 113H261.237L259.707 111.47ZM264.261 111.614L265.953 109.994V109.058H262.011L261.381 109.688V111.002L262.011 111.614H264.261ZM269.581 111.434V110.318H271.255V110.984L271.867 111.578H275.035L275.647 110.984V109.796L275.035 109.166H271.165L269.653 107.654V105.602L271.201 104.036H275.575L277.141 105.602V106.718H275.467V106.052L274.855 105.458H271.939L271.327 106.052V107.168L271.939 107.798H275.773L277.321 109.346V111.434L275.773 113H271.147L269.581 111.434ZM280.193 111.29V105.476H278.573V104.036H280.229V101.12H281.867V104.036H284.657V105.494H281.867V110.75L282.677 111.542H284.657V113H281.921L280.193 111.29ZM286.111 111.29V105.764L287.839 104.036H292.537L294.265 105.764V109.04H287.785V110.768L288.577 111.56H291.799L292.591 110.786V110.174H294.247V111.29L292.555 113H287.821L286.111 111.29ZM292.591 107.726V106.268L291.781 105.476H288.595L287.785 106.268V107.726H292.591ZM300.894 111.29V105.764L302.622 104.036H307.32L309.048 105.764V109.04H302.568V110.768L303.36 111.56H306.582L307.374 110.786V110.174H309.03V111.29L307.338 113H302.604L300.894 111.29ZM307.374 107.726V106.268L306.564 105.476H303.378L302.568 106.268V107.726H307.374ZM315.408 111.434V110.318H317.082V110.984L317.694 111.578H320.862L321.474 110.984V109.796L320.862 109.166H316.992L315.48 107.654V105.602L317.028 104.036H321.402L322.968 105.602V106.718H321.294V106.052L320.682 105.458H317.766L317.154 106.052V107.168L317.766 107.798H321.6L323.148 109.346V111.434L321.6 113H316.974L315.408 111.434ZM325.029 111.272V105.764L326.757 104.036H331.545L333.255 105.764V111.272L331.545 113H326.757L325.029 111.272ZM330.771 111.542L331.581 110.75V106.286L330.771 105.494H327.513L326.703 106.286V110.75L327.513 111.542H330.771ZM335.688 100.148H337.362V113H335.688V100.148ZM340.785 111.29V105.476H339.165V104.036H340.821V101.12H342.459V104.036H345.249V105.494H342.459V110.75L343.269 111.542H345.249V113H342.513L340.785 111.29ZM346.703 111.29V105.764L348.431 104.036H353.129L354.857 105.764V109.04H348.377V110.768L349.169 111.56H352.391L353.183 110.786V110.174H354.839V111.29L353.147 113H348.413L346.703 111.29ZM353.183 107.726V106.268L352.373 105.476H349.187L348.377 106.268V107.726H353.183ZM356.754 107.672H362.37V109.148H356.754V107.672ZM364.351 111.272V105.764L366.079 104.036H370.867L372.577 105.764V111.272L370.867 113H366.079L364.351 111.272ZM370.093 111.542L370.903 110.75V106.286L370.093 105.494H366.835L366.025 106.286V110.75L366.835 111.542H370.093ZM379.473 104.036H381.075V105.8L382.839 104.036H385.647L387.411 105.8V113H385.737V106.304L384.927 105.494H383.217L381.147 107.564V113H379.473V104.036ZM389.664 111.29V105.764L391.392 104.036H396.09L397.818 105.764V109.04H391.338V110.768L392.13 111.56H395.352L396.144 110.786V110.174H397.8V111.29L396.108 113H391.374L389.664 111.29ZM396.144 107.726V106.268L395.334 105.476H392.148L391.338 106.268V107.726H396.144ZM399.624 111.434V110.318H401.298V110.984L401.91 111.578H405.078L405.69 110.984V109.796L405.078 109.166H401.208L399.696 107.654V105.602L401.244 104.036H405.618L407.184 105.602V106.718H405.51V106.052L404.898 105.458H401.982L401.37 106.052V107.168L401.982 107.798H405.816L407.364 109.346V111.434L405.816 113H401.19L399.624 111.434ZM410.236 111.29V105.476H408.616V104.036H410.272V101.12H411.91V104.036H414.7V105.494H411.91V110.75L412.72 111.542H414.7V113H411.964L410.236 111.29ZM416.328 111.47V109.256L417.858 107.726H422.574V106.214L421.782 105.44H418.848L418.074 106.214V106.88H416.4V105.782L418.146 104.036H422.484L424.23 105.782V113H422.664V111.524L421.116 113H417.858L416.328 111.47ZM420.882 111.614L422.574 109.994V109.058H418.632L418.002 109.688V111.002L418.632 111.614H420.882ZM430.935 111.47V109.256L432.465 107.726H437.181V106.214L436.389 105.44H433.455L432.681 106.214V106.88H431.007V105.782L432.753 104.036H437.091L438.837 105.782V113H437.271V111.524L435.723 113H432.465L430.935 111.47ZM435.489 111.614L437.181 109.994V109.058H433.239L432.609 109.688V111.002L433.239 111.614H435.489ZM435.615 100.112H437.469L435.795 103.01H434.265L435.615 100.112ZM441.26 104.036H442.862V105.602L444.41 104.036H446.804V105.494H444.788L442.934 107.366V113H441.26V104.036ZM447.689 111.29V105.764L449.417 104.036H454.115L455.843 105.764V109.04H449.363V110.768L450.155 111.56H453.377L454.169 110.786V110.174H455.825V111.29L454.133 113H449.399L447.689 111.29ZM454.169 107.726V106.268L453.359 105.476H450.173L449.363 106.268V107.726H454.169ZM457.83 111.47V109.256L459.36 107.726H464.076V106.214L463.284 105.44H460.35L459.576 106.214V106.88H457.902V105.782L459.648 104.036H463.986L465.732 105.782V113H464.166V111.524L462.618 113H459.36L457.83 111.47ZM462.384 111.614L464.076 109.994V109.058H460.134L459.504 109.688V111.002L460.134 111.614H462.384Z" fill="white"/>
<path d="M97.3648 123.6H102.321L103.485 124.764V127.548L102.309 128.724H98.5168V132H97.3648V123.6ZM101.805 127.74L102.345 127.212V125.112L101.805 124.584H98.5168V127.74H101.805ZM104.439 130.86V127.176L105.591 126.024H108.723L109.875 127.176V129.36H105.555V130.512L106.083 131.04H108.231L108.759 130.524V130.116H109.863V130.86L108.735 132H105.579L104.439 130.86ZM108.759 128.484V127.512L108.219 126.984H106.095L105.555 127.512V128.484H108.759ZM111.379 126.024H112.447V127.068L113.479 126.024H115.075V126.996H113.731L112.495 128.244V132H111.379V126.024ZM116.09 126.024H117.158V127.116L118.25 126.024H119.702L120.602 126.924L121.49 126.024H123.446L124.61 127.188V132H123.494V127.536L122.954 126.996H121.742L120.962 127.776V132H119.882V127.524L119.354 126.996H118.442L117.206 128.232V132H116.09V126.024ZM126.167 124.692V124.092L126.587 123.66H127.223L127.643 124.092V124.692L127.223 125.124H126.587L126.167 124.692ZM126.347 126.024H127.463V132H126.347V126.024ZM129.802 130.86V126.984H128.722V126.024H129.826V124.08H130.918V126.024H132.778V126.996H130.918V130.5L131.458 131.028H132.778V132H130.954L129.802 130.86ZM133.983 124.692V124.092L134.403 123.66H135.039L135.459 124.092V124.692L135.039 125.124H134.403L133.983 124.692ZM134.163 126.024H135.279V132H134.163V126.024ZM136.958 130.848V127.176L138.11 126.024H140.438L141.326 126.804V123.432H142.442V132H141.374V130.968L140.342 132H138.11L136.958 130.848ZM140.162 131.028L141.326 129.852V127.92L140.282 126.996H138.626L138.074 127.548V130.476L138.626 131.028H140.162ZM144.001 130.848V127.176L145.153 126.024H148.345L149.485 127.176V130.848L148.345 132H145.153L144.001 130.848ZM147.829 131.028L148.369 130.5V127.524L147.829 126.996H145.657L145.117 127.524V130.5L145.657 131.028H147.829ZM153.902 130.98V129.504L154.922 128.484H158.066V127.476L157.538 126.96H155.582L155.066 127.476V127.92H153.95V127.188L155.114 126.024H158.006L159.17 127.188V132H158.126V131.016L157.094 132H154.922L153.902 130.98ZM156.938 131.076L158.066 129.996V129.372H155.438L155.018 129.792V130.668L155.438 131.076H156.938ZM160.785 126.024H161.853V127.068L162.885 126.024H164.481V126.996H163.137L161.901 128.244V132H160.785V126.024ZM169.416 130.944L168.36 132H166.224L165.072 130.848V127.176L166.224 126.024H169.368L170.532 127.188V134.544H169.416V130.944ZM168.144 131.028L169.416 129.696V127.536L168.876 126.996H166.728L166.188 127.536V130.488L166.728 131.028H168.144ZM172.093 130.848V126.024H173.209V130.5L173.749 131.028H174.865L176.257 129.636V126.024H177.372V132H176.305V130.812L175.117 132H173.245L172.093 130.848ZM178.995 124.692V124.092L179.415 123.66H180.051L180.471 124.092V124.692L180.051 125.124H179.415L178.995 124.692ZM179.175 126.024H180.291V132H179.175V126.024ZM181.37 126.024H182.522L184.178 130.8H184.226L185.87 126.024H187.022L184.802 132H183.602L181.37 126.024ZM187.747 130.848V127.176L188.899 126.024H192.091L193.231 127.176V130.848L192.091 132H188.899L187.747 130.848ZM191.575 131.028L192.115 130.5V127.524L191.575 126.996H189.403L188.863 127.524V130.5L189.403 131.028H191.575ZM194.493 130.956V130.212H195.609V130.656L196.017 131.052H198.129L198.537 130.656V129.864L198.129 129.444H195.549L194.541 128.436V127.068L195.573 126.024H198.489L199.533 127.068V127.812H198.417V127.368L198.009 126.972H196.065L195.657 127.368V128.112L196.065 128.532H198.621L199.653 129.564V130.956L198.621 132H195.537L194.493 130.956ZM203.763 130.968L208.299 124.596V124.572H203.883V123.6H209.595V124.632L205.059 131.004V131.028H209.595V132H203.763V130.968ZM211.097 123.6H212.249V132H211.097V123.6ZM214.107 123.6H219.063L220.227 124.764V127.548L219.051 128.724H215.259V132H214.107V123.6ZM218.547 127.74L219.087 127.212V125.112L218.547 124.584H215.259V127.74H218.547ZM220.652 132H220.472L220.064 131.592V130.992L220.472 130.584H221.12L221.528 130.992V132L220.892 133.524H220.256L220.652 132ZM226.037 123.6H230.993L232.157 124.764V127.548L230.981 128.724H227.189V132H226.037V123.6ZM230.477 127.74L231.017 127.212V125.112L230.477 124.584H227.189V127.74H230.477ZM233.595 123.6H238.623L239.979 124.956V130.644L238.623 132H233.595V123.6ZM238.083 130.992L238.827 130.248V125.352L238.083 124.608H234.747V130.992H238.083ZM241.658 123.6H247.178V124.608H242.81V127.392H246.602V128.4H242.81V132H241.658V123.6ZM247.488 132H247.308L246.9 131.592V130.992L247.308 130.584H247.956L248.364 130.992V132L247.728 133.524H247.092L247.488 132ZM252.873 123.6H257.901L259.257 124.956V130.644L257.901 132H252.873V123.6ZM257.361 130.992L258.105 130.248V125.352L257.361 124.608H254.025V130.992H257.361ZM260.815 130.656V124.944L262.159 123.6H266.119L267.463 124.944V130.656L266.119 132H262.159L260.815 130.656ZM265.567 130.992L266.311 130.248V125.352L265.567 124.608H262.711L261.967 125.352V130.248L262.711 130.992H265.567ZM269.018 130.656V124.944L270.362 123.6H274.13L275.426 124.896V125.844H274.274V125.304L273.578 124.608H270.914L270.17 125.352V130.248L270.914 130.992H273.578L274.274 130.296V129.756H275.426V130.704L274.13 132H270.362L269.018 130.656ZM276.996 132H276.816L276.408 131.592V130.992L276.816 130.584H277.464L277.872 130.992V132L277.236 133.524H276.6L276.996 132ZM282.38 123.6H287.336L288.5 124.764V127.548L287.324 128.724H283.532V132H282.38V123.6ZM286.82 127.74L287.36 127.212V125.112L286.82 124.584H283.532V127.74H286.82ZM289.939 123.6H291.019L295.183 130.104H295.207V123.6H296.311V132H295.231L291.067 125.496H291.043V132H289.939V123.6ZM297.987 130.656V124.944L299.331 123.6H303.171L304.467 124.896V125.844H303.315V125.304L302.619 124.608H299.883L299.139 125.352V130.248L299.883 130.992H302.595L303.327 130.26V128.532H301.467V127.524H304.467V130.656L303.123 132H299.331L297.987 130.656ZM309.064 123.6H314.704V124.608H310.216V127.284H314.356V128.28H310.216V130.992H314.704V132H309.064V123.6ZM318.997 130.836V129.924H320.137V130.464L320.653 130.992H323.401L323.929 130.452V128.724L323.401 128.208H320.185L319.021 127.032V124.764L320.185 123.6H323.809L324.973 124.764V125.688H323.845V125.136L323.317 124.608H320.689L320.161 125.136V126.672L320.689 127.2H323.905L325.069 128.364V130.812L323.881 132H320.161L318.997 130.836ZM325.736 123.6H326.924L329.288 130.62H329.312L331.676 123.6H332.864L329.888 132H328.712L325.736 123.6ZM333.706 130.656V124.944L335.05 123.6H338.89L340.186 124.896V125.844H339.034V125.304L338.338 124.608H335.602L334.858 125.352V130.248L335.602 130.992H338.314L339.046 130.26V128.532H337.186V127.524H340.186V130.656L338.842 132H335.05L333.706 130.656ZM344.603 130.848V127.176L345.755 126.024H348.083L348.971 126.804V123.432H350.087V132H349.019V130.968L347.987 132H345.755L344.603 130.848ZM347.807 131.028L348.971 129.852V127.92L347.927 126.996H346.271L345.719 127.548V130.476L346.271 131.028H347.807ZM351.646 130.86V127.176L352.798 126.024H355.93L357.082 127.176V129.36H352.762V130.512L353.29 131.04H355.438L355.966 130.524V130.116H357.07V130.86L355.942 132H352.786L351.646 130.86ZM355.966 128.484V127.512L355.426 126.984H353.302L352.762 127.512V128.484H355.966ZM361.441 130.98V129.504L362.461 128.484H365.605V127.476L365.077 126.96H363.121L362.605 127.476V127.92H361.489V127.188L362.653 126.024H365.545L366.709 127.188V132H365.665V131.016L364.633 132H362.461L361.441 130.98ZM364.477 131.076L365.605 129.996V129.372H362.977L362.557 129.792V130.668L362.977 131.076H364.477ZM368.747 130.86V126.984H367.667V126.024H368.771V124.08H369.863V126.024H371.723V126.996H369.863V130.5L370.403 131.028H371.723V132H369.899L368.747 130.86ZM372.693 130.86V127.176L373.845 126.024H376.977L378.129 127.176V129.36H373.809V130.512L374.337 131.04H376.485L377.013 130.524V130.116H378.117V130.86L376.989 132H373.833L372.693 130.86ZM377.013 128.484V127.512L376.473 126.984H374.349L373.809 127.512V128.484H377.013ZM375.825 123.408H377.061L375.945 125.34H374.925L375.825 123.408ZM382.416 130.32L386.784 126.108V125.136L386.256 124.608H384.048L383.52 125.136V125.844H382.368V124.764L383.532 123.6H386.772L387.936 124.764V126.444L383.592 130.608V131.004H387.984V132H382.416V130.32ZM389.18 130.836V129.756H390.332V130.464L390.86 130.992H393.26L393.788 130.464V128.232L393.26 127.716H389.3V123.6H394.772V124.596H390.428V126.708H393.764L394.94 127.884V130.836L393.776 132H390.344L389.18 130.836ZM396.378 130.74V124.86L397.638 123.6H401.19L402.45 124.86V130.74L401.19 132H397.638L396.378 130.74ZM400.662 130.992L401.298 130.356V125.244L400.662 124.608H398.166L397.53 125.244V130.356L398.166 130.992H400.662ZM407.162 123.6H408.326L410.954 129.744H410.978L413.618 123.6H414.782V132H413.678V125.868H413.654L411.374 131.052H410.558L408.29 125.868H408.266V132H407.162V123.6ZM416.584 123.6H421.48L422.62 124.74V127.068L422.08 127.62L422.992 128.544V130.788L421.78 132H416.584V123.6ZM420.952 127.296L421.492 126.756V125.112L420.952 124.584H417.712V127.296H420.952ZM421.228 131.016L421.864 130.392V128.88L421.228 128.244H417.712V131.016H421.228Z" fill="#D4D4D8"/>
<rect width="218" height="40" transform="translate(151 152)" fill="#40C910"/>
<path d="M192.36 165.8H199.384L200.984 167.4V170.536L200.344 171.192L201.48 172.344V175.272L199.752 177H192.36V165.8ZM198.264 170.488L198.84 169.912V168.184L198.28 167.624H194.488V170.488H198.264ZM198.648 175.176L199.336 174.488V172.92L198.648 172.232H194.488V175.176H198.648ZM203.079 175.08V165.8H205.255V174.328L206.071 175.144H209.207L210.023 174.328V165.8H212.199V175.08L210.279 177H204.999L203.079 175.08ZM214.042 175.272V173.672H216.186V174.616L216.714 175.144H220.026L220.57 174.6V172.744L220.042 172.216H215.802L214.074 170.488V167.528L215.802 165.8H220.858L222.586 167.528V169.144H220.442V168.184L219.914 167.656H216.746L216.218 168.184V169.832L216.746 170.36H220.986L222.714 172.088V175.24L220.954 177H215.77L214.042 175.272ZM224.31 175.16V167.64L226.15 165.8H231.622L233.43 167.608V169.32H231.254V168.408L230.502 167.656H227.302L226.486 168.472V174.328L227.302 175.144H230.502L231.254 174.392V173.48H233.43V175.192L231.622 177H226.15L224.31 175.16ZM238.012 165.8H239.996L244.092 177H241.884L240.972 174.52H237.036L236.124 177H233.916L238.012 165.8ZM240.492 172.728L239.004 168.472H238.972L237.532 172.728H240.492ZM254.02 173.288V177H251.844V173.784L250.884 172.712H247.396V177H245.22V165.8H252.244L253.956 167.528V170.92L252.868 172.024L254.02 173.288ZM247.396 170.92H251.252L251.812 170.36V168.184L251.252 167.624H247.396V170.92ZM263.512 165.8H265.496L269.592 177H267.384L266.472 174.52H262.536L261.624 177H259.416L263.512 165.8ZM265.992 172.728L264.504 168.472H264.472L263.032 172.728H265.992ZM279.52 173.288V177H277.344V173.784L276.384 172.712H272.896V177H270.72V165.8H277.744L279.456 167.528V170.92L278.368 172.024L279.52 173.288ZM272.896 170.92H276.752L277.312 170.36V168.184L276.752 167.624H272.896V170.92ZM291.133 177.896L289.789 179.24L287.533 177H283.197L281.357 175.16V167.64L283.197 165.8H288.957L290.797 167.64V175.16L289.613 176.344L291.133 177.896ZM287.805 175.144L288.621 174.328V168.472L287.805 167.656H284.349L283.533 168.472V174.328L284.349 175.144H287.805ZM292.72 175.08V165.8H294.896V174.328L295.712 175.144H298.848L299.664 174.328V165.8H301.84V175.08L299.92 177H294.64L292.72 175.08ZM304.003 165.8H306.179V177H304.003V165.8ZM307.465 165.8H309.705L312.489 174.408H312.521L315.305 165.8H317.545L313.561 177H311.449L307.465 165.8ZM318.357 175.16V167.64L320.197 165.8H325.957L327.797 167.64V175.16L325.957 177H320.197L318.357 175.16ZM324.805 175.144L325.621 174.328V168.472L324.805 167.656H321.349L320.533 168.472V174.328L321.349 175.144H324.805Z" fill="#09090B"/>
<defs>
<clipPath id="clip0_53_3649">
<rect width="58" height="58" fill="white" transform="translate(231 24)"/>
</clipPath>
</defs>
</svg>
