<svg width="58" height="58" viewBox="0 0 58 58" fill="none" xmlns="http://www.w3.org/2000/svg">
<g clip-path="url(#clip0_287_3153)">
<path d="M46.1816 4.30954H19.5742V15.3434H51.8642V9.98997C51.8642 6.85748 49.315 4.30954 46.1816 4.30954Z" fill="white"/>
<path d="M31.12 17.0413H0V6.80307C0 3.05151 3.05284 0 6.80573 0H16.7559C17.7449 0 18.6976 0.20842 19.5631 0.600037C20.7721 1.14476 21.8106 2.0426 22.539 3.21568L31.12 17.0413Z" fill="#40C910"/>
<path d="M58 19.3335V52.3125C58 55.4489 55.4467 58 52.3089 58H5.69106C2.55325 58 0 55.4489 0 52.3125V13.6446H52.3089C55.4467 13.6446 58 16.1965 58 19.3335Z" fill="#40C910"/>
<path d="M58 19.3335V52.3125C58 55.4489 55.4467 58 52.3089 58H29V13.6446H52.3089C55.4467 13.6446 58 16.1965 58 19.3335Z" fill="#40C910"/>
<path d="M44.2565 35.8217C44.2565 44.235 37.4123 51.0797 28.9998 51.0797C20.5874 51.0797 13.7432 44.235 13.7432 35.8217C13.7432 27.4096 20.5874 20.565 28.9998 20.565C37.4123 20.565 44.2565 27.4096 44.2565 35.8217Z" fill="#E7ECFC"/>
<path d="M44.2567 35.8217C44.2567 44.235 37.4125 51.0797 29 51.0797V20.565C37.4125 20.565 44.2567 27.4096 44.2567 35.8217Z" fill="white"/>
<path d="M33.9175 36.0088C33.5993 36.2783 33.2095 36.4097 32.8232 36.4097C32.3395 36.4097 31.859 36.2049 31.5227 35.8057L30.6992 34.8296V41.2207C30.6992 42.1588 29.938 42.9199 28.9999 42.9199C28.0618 42.9199 27.3007 42.1588 27.3007 41.2207V34.8296L26.4772 35.8057C25.871 36.523 24.7997 36.6146 24.0824 36.0088C23.3655 35.4039 23.2735 34.3322 23.8784 33.6149L27.2419 29.6275C27.6804 29.1089 28.3202 28.8106 28.9999 28.8106C29.6796 28.8106 30.3195 29.1089 30.758 29.6275L34.1215 33.6149C34.7264 34.3322 34.6343 35.4039 33.9175 36.0088Z" fill="#40C910"/>
<path d="M33.9176 36.0088C33.5994 36.2783 33.2095 36.4097 32.8232 36.4097C32.3396 36.4097 31.859 36.2049 31.5227 35.8057L30.6992 34.8296V41.2207C30.6992 42.1588 29.9381 42.9199 29 42.9199V28.8106C29.6797 28.8106 30.3195 29.1089 30.7581 29.6275L34.1216 33.6149C34.7265 34.3322 34.6344 35.4039 33.9176 36.0088Z" fill="#40C910"/>
</g>
<defs>
<clipPath id="clip0_287_3153">
<rect width="58" height="58" fill="white"/>
</clipPath>
</defs>
</svg>
