<svg width="54" height="61" viewBox="0 0 54 61" fill="none" xmlns="http://www.w3.org/2000/svg">
<path d="M17.6274 0.534674C14.9569 0.867998 12.7537 1.1791 12.687 1.24577C12.4644 1.46799 9.03727 15.1343 9.17079 15.2454C9.25981 15.3343 12.1751 16.2676 15.6691 17.3343L22.0116 19.2676L28.354 17.3343C31.848 16.2676 34.7633 15.3343 34.8523 15.2454C35.0304 15.0899 31.6922 1.62354 31.4252 1.42354C31.3361 1.35688 29.4223 1.02355 27.1968 0.690226C24.9491 0.356899 22.9685 0.0457954 22.7905 0.00135231C22.6124 -0.0208702 20.2757 0.22357 17.6274 0.534674Z" fill="#40C910"/>
<path d="M1.22592 25.3119C0.135457 28.2452 -0.0203234 29.1785 0.00193091 33.2228C0.00193091 37.7561 0.335746 39.3116 1.98257 42.7115C5.07592 49.0669 10.6173 53.289 17.7832 54.8001C18.5176 54.9557 20.4314 55.089 22.0115 55.0668C25.3051 55.0446 28.0869 54.4446 30.8465 53.2002L32.382 52.4891L30.802 50.8891L29.2219 49.3114L27.397 49.9113C24.9713 50.7335 22.3898 51.0447 20.1866 50.778C17.4939 50.4891 16.4256 50.1558 13.9332 48.9558C9.14847 46.6225 5.78806 42.3782 4.51957 37.045C3.85193 34.3339 4.00772 30.5785 4.87564 27.9341C5.1872 26.9119 5.43199 26.0452 5.38749 26.0008C5.14269 25.8008 2.02708 24.1119 1.8713 24.1119C1.76003 24.1119 1.47072 24.6453 1.22592 25.3119Z" fill="black"/>
<path d="M40.0374 25.1342C39.0582 25.6897 38.2125 26.1786 38.168 26.223C38.1235 26.2675 38.257 26.7341 38.4573 27.2452C39.4588 29.7341 39.7703 33.7562 39.1695 36.5561C38.3683 40.3116 36.9218 42.9337 34.14 45.7115L32.2039 47.6225L35.7868 51.2002L39.3475 54.7557L38.8579 55.289L38.3683 55.8001L40.9721 58.4001L43.5981 61H48.7166H53.8128L48.6276 55.8668L43.4423 50.7558L42.9082 51.2447L42.3518 51.7558L40.349 49.7558L38.3238 47.7336L39.4588 46.2448C40.9053 44.3337 42.4409 41.2005 43.0862 38.7783C43.5313 37.1561 43.5981 36.3561 43.5981 33.2229C43.5981 29.4007 43.2865 27.4897 42.2183 25.0675L41.8177 24.1342L40.0374 25.1342Z" fill="black"/>
<path d="M7.03352 17.2284L0.558105 20.3499L21.8823 32.3899L43.7648 20.3499L37.401 17.2284L21.8823 22.2451L7.03352 17.2284Z" fill="#40C910"/>
</svg>
