<svg width="195" height="37" viewBox="0 0 195 37" fill="none" xmlns="http://www.w3.org/2000/svg">
<path d="M10.6928 0.324368C9.07282 0.52655 7.73633 0.715253 7.69583 0.755689C7.56084 0.890476 5.48185 9.1799 5.56285 9.2473C5.61685 9.30121 7.38534 9.86732 9.50482 10.5143L13.3523 11.687L17.1998 10.5143C19.3192 9.86732 21.0877 9.30121 21.1417 9.2473C21.2497 9.15295 19.2247 0.984827 19.0627 0.863519C19.0087 0.823082 17.8477 0.620901 16.4978 0.41872C15.1343 0.216538 13.9328 0.0278368 13.8248 0.000879288C13.7168 -0.0125999 12.2993 0.135667 10.6928 0.324368Z" fill="#40C910"/>
<path d="M0.743665 15.3531C0.0821706 17.1323 -0.0123286 17.6984 0.00117133 20.1516C0.00117133 22.9012 0.20367 23.8447 1.20266 25.907C3.07915 29.7619 6.44062 32.3229 10.7876 33.2394C11.2331 33.3338 12.3941 33.4147 13.3526 33.4012C15.3505 33.3877 17.038 33.0238 18.712 32.269L19.6435 31.8376L18.685 30.8672L17.7265 29.9102L16.6195 30.2741C15.148 30.7728 13.5821 30.9615 12.2456 30.7998C10.6121 30.6246 9.96409 30.4224 8.4521 29.6945C5.54962 28.2793 3.51114 25.7048 2.74165 22.4699C2.33665 20.8255 2.43115 18.5476 2.95765 16.9436C3.14664 16.3236 3.29514 15.7979 3.26814 15.771C3.11965 15.6497 1.22966 14.6253 1.13516 14.6253C1.06766 14.6253 0.892164 14.9488 0.743665 15.3531Z" fill="white"/>
<path d="M24.2871 15.2453C23.6931 15.5823 23.1801 15.8788 23.1531 15.9058C23.1261 15.9327 23.2071 16.2158 23.3286 16.5258C23.9361 18.0354 24.1251 20.4751 23.7606 22.1734C23.2746 24.4513 22.3971 26.0418 20.7096 27.7266L19.5352 28.8858L21.7086 31.0559L23.8686 33.2125L23.5716 33.536L23.2746 33.846L24.8541 35.423L26.4471 37H29.5521H32.6435L29.4981 33.8864L26.3526 30.7863L26.0286 31.0828L25.6911 31.3928L24.4761 30.1798L23.2476 28.9532L23.9361 28.0501C24.8136 26.8909 25.7451 24.9904 26.1366 23.5213C26.4066 22.5373 26.4471 22.0521 26.4471 20.1516C26.4471 17.8332 26.2581 16.6741 25.6101 15.2049L25.3671 14.6388L24.2871 15.2453Z" fill="white"/>
<path d="M4.26599 10.45L0.337891 12.3434L13.2735 19.6463L26.5478 12.3434L22.6874 10.45L13.2735 13.4929L4.26599 10.45Z" fill="#40C910"/>
<path d="M33.709 11.1606H36.4752L40.7397 24.1143H40.7858L45.0503 11.1606H47.8165L42.0997 27.2951H39.4257L33.709 11.1606Z" fill="white"/>
<path d="M49.0688 13.3503V12.0135L50.0139 11.0915H51.4201L52.3652 12.0135V13.3503L51.4201 14.2723H50.0139L49.0688 13.3503ZM49.4146 15.8166H52.0194V27.2951H49.4146V15.8166Z" fill="white"/>
<path d="M55.4701 15.8166H57.8905V17.7758L59.8038 15.8166H62.9849V18.0523H60.3801L58.0749 20.4034V27.2951H55.4701V15.8166Z" fill="white"/>
<path d="M64.8375 24.9671V15.8166H67.4423V24.1604L68.3413 25.0593H70.3468L72.7902 22.6161V15.8166H75.395V27.2951H72.9746V25.1745L70.8309 27.2951H67.1657L64.8375 24.9671Z" fill="white"/>
<path d="M78.0461 25.1515V23.7455H80.6049V24.4831L81.2503 25.1515H85.169L85.8145 24.4831V23.2384L85.146 22.57H80.1899L78.1383 20.4956V17.914L80.236 15.8166H86.022L88.1427 17.9601V19.3661H85.584V18.6286L84.9385 17.9601H81.3425L80.6971 18.6286V19.781L81.3656 20.4495H86.2986L88.3732 22.5469V25.1976L86.2755 27.2951H80.1669L78.0461 25.1515Z" fill="white"/>
<path d="M91.262 11.1606H93.936V27.2951H91.262V11.1606Z" fill="white"/>
<path d="M97.3851 15.8166H99.8055V17.914L101.903 15.8166H105.545L107.966 18.2367V27.2951H105.361V18.9513L104.462 18.0523H102.387L99.9899 20.4725V27.2951H97.3851V15.8166Z" fill="white"/>
<path d="M110.501 25.1515V23.7455H113.06V24.4831L113.705 25.1515H117.624L118.269 24.4831V23.2384L117.601 22.57H112.645L110.593 20.4956V17.914L112.691 15.8166H118.477L120.598 17.9601V19.3661H118.039V18.6286L117.393 17.9601H113.797L113.152 18.6286V19.781L113.82 20.4495H118.753L120.828 22.5469V25.1976L118.73 27.2951H112.622L110.501 25.1515Z" fill="white"/>
<path d="M123.486 15.8166H125.907V17.6144L127.728 15.8166H132.131L134.436 18.1215V24.9901L132.131 27.2951H127.705L126.091 25.9352V32.1815H123.486V15.8166ZM130.909 25.0593L131.831 24.1604V18.9513L130.909 18.0523H128.143L126.091 20.1037V23.3076L128.027 25.0593H130.909Z" fill="white"/>
<path d="M137.196 25.0132V18.1215L139.478 15.8166H145.725L148.053 18.1215V22.4086H139.8V24.2526L140.676 25.1284H144.618L145.448 24.2756V23.5841H148.03V25.0593L145.794 27.2951H139.455L137.196 25.0132ZM145.448 20.4956V18.9052L144.549 17.9832H140.7L139.8 18.9052V20.4956H145.448Z" fill="white"/>
<path d="M150.708 25.0132V18.0984L152.967 15.8166H159.029L161.311 18.1215V20.0115H158.707V18.9513L157.785 18.0523H154.235L153.313 18.9513V24.1604L154.235 25.0593H157.785L158.707 24.1604V23.1001H161.311V24.9901L159.029 27.2951H152.967L150.708 25.0132Z" fill="white"/>
<path d="M164.88 25.0132V18.0293H162.805V15.8166H164.926V12.0826H167.485V15.8166H171.012V18.0293H167.485V24.1834L168.384 25.0823H171.012V27.2951H167.162L164.88 25.0132Z" fill="white"/>
<path d="M172.87 24.9901V18.1215L175.152 15.8166H181.514L183.819 18.1215V24.9901L181.514 27.2951H175.152L172.87 24.9901ZM180.292 25.1054L181.214 24.1834V18.9282L180.292 18.0062H176.396L175.474 18.9282V24.1834L176.396 25.1054H180.292Z" fill="white"/>
<path d="M186.815 15.8166H189.235V17.7758L191.149 15.8166H194.33V18.0523H191.725L189.42 20.4034V27.2951H186.815V15.8166Z" fill="white"/>
</svg>
